<?xml version="1.0" encoding="utf-8"?>
<!-- Generator: Adobe Illustrator 18.1.1, SVG Export Plug-In . SVG Version: 6.00 Build 0)  -->
<svg version="1.1" id="Layer_1" xmlns="http://www.w3.org/2000/svg" xmlns:xlink="http://www.w3.org/1999/xlink" x="0px" y="0px"
	 viewBox="0 0 2834.6 1700.8" enable-background="new 0 0 2834.6 1700.8" xml:space="preserve">
<text transform="matrix(1 0 0 1 476.5883 903.5295)" fill="#800000" font-family="'CenturyGothic'" font-size="200">sita</text>
<text transform="matrix(0.7681 0 0 1 406.8828 988.8237)" fill="#808080" font-family="'CenturyGothic-Bold'" font-size="80">TUP SIT Assistant</text>
<g>
	<line fill="#123456" x1="406.9" y1="918.1" x2="868.6" y2="918.1"/>
	<g>
		<g>
			<g>
				<g>
					<path fill="#304E6B" d="M868.1,915.7c0.7,0,0.4-0.4,0.5-0.5C867.5,915.3,868.1,915.8,868.1,915.7z"/>
					<polygon fill="#304E6B" points="856.9,916.6 857.1,916.5 855.4,916.9 					"/>
					<path fill="#304E6B" d="M846.3,916.6c1,0.7,3.8-0.1,5.7,0.1l0.3,0.2l0.8-0.6C850.9,916.4,847.9,916.8,846.3,916.6z"/>
					<path fill="#304E6B" d="M840.7,915.1c0.3,0.3-1.2,0.2,1.3,0.1c-0.1,0-0.2,0-0.2-0.1C841.6,915.1,841.3,915.1,840.7,915.1z"/>
					<path fill="#304E6B" d="M841.8,915.1C842.9,915.1,841.1,914.9,841.8,915.1L841.8,915.1z"/>
					<path fill="#304E6B" d="M836.7,915.3l1.5-0.2c-0.3-0.2-1.6-0.2-1.1-0.3C835.5,914.8,835.8,915,836.7,915.3z"/>
					<path fill="#304E6B" d="M835.3,915.8l0.8-0.1C835.9,915.6,835.7,915.6,835.3,915.8z"/>
					<path fill="#304E6B" d="M837.6,915.5l-1.6,0.2c0.2,0.1,0.2,0.3,0.7-0.1C836.6,915.8,837,915.6,837.6,915.5z"/>
					<path fill="#304E6B" d="M838.6,915.6c0.8,0.2,1.9,0.3,0.4,0.5C841.8,916,841.3,915.5,838.6,915.6z"/>
					<path fill="#304E6B" d="M845.8,917.4l1.1,0.2l0.9-0.2C847.4,917.5,845.7,917.1,845.8,917.4z"/>
					<path fill="#304E6B" d="M827.6,914.9c-0.1,0.2,0.5,0.4,0.6,0.6l1.1-0.2C828.7,915.2,827.7,915.1,827.6,914.9z"/>
					<path fill="#304E6B" d="M828.2,915.5l-1.6,0.3C828,915.8,828.3,915.7,828.2,915.5z"/>
					<polygon fill="#304E6B" points="835,916.6 837.7,916 834.5,916.6 					"/>
					<polygon fill="#304E6B" points="821.4,914.9 822.3,914.5 820.7,915 					"/>
					<path fill="#304E6B" d="M817.3,914.9c0.7-0.3-0.9-0.5-0.2-0.7c-1.1,0.1-2.1,0.3-2.9,0.5C815.1,914.7,816.1,914.7,817.3,914.9z"
						/>
					<path fill="#304E6B" d="M812.8,915.1c0.5-0.1,0.9-0.2,1.4-0.3C813.7,914.9,813.2,915,812.8,915.1z"/>
					<path fill="#304E6B" d="M823.8,915.7c-0.1-0.1-0.4-0.3-1.3-0.4l0.6,0.4C823.4,915.7,823.6,915.7,823.8,915.7z"/>
					<path fill="#304E6B" d="M823.2,915.7L823.2,915.7c-0.7,0-1.2,0-1.4,0C822,915.6,822.4,915.7,823.2,915.7z"/>
					<path fill="#304E6B" d="M824,915.7c-0.1,0-0.1,0-0.2,0C823.9,915.7,823.9,915.7,824,915.7z"/>
					<path fill="#304E6B" d="M830.8,916.2c-0.9,0.2-2.9,0.5-1,0.9C830.5,916.8,829.4,916.5,830.8,916.2z"/>
					<path fill="#304E6B" d="M824.8,916.2l1.7,0.1c0-0.1-0.3-0.3,0.1-0.4L824.8,916.2z"/>
					<polygon fill="#304E6B" points="823.9,916.3 824.8,916.2 824.1,916.2 					"/>
					<path fill="#304E6B" d="M815.7,915.5c-0.7,0.2-1.6,0.2-2.5,0.2c1,0.1,2,0.1,3,0.1C816.3,915.7,816.8,915.5,815.7,915.5z"/>
					<path fill="#304E6B" d="M819.3,915.6c-0.1,0-0.1,0-0.2,0C819.3,915.7,819.4,915.7,819.3,915.6z"/>
					<path fill="#304E6B" d="M804.2,915.7c0.1,0,0.1,0.1,0.1,0.1c0,0,0,0,0-0.1L804.2,915.7z"/>
					<path fill="#304E6B" d="M816.4,916c0.7,0.1,1.2,0,1.6-0.2c-0.6,0-1.1,0.1-1.8,0.1C816.1,915.9,816.1,916,816.4,916z"/>
					<path fill="#304E6B" d="M810.3,915.3c0.4,0.1,0.8,0.2,1.3,0.2C811.2,915.4,810.4,915.2,810.3,915.3z"/>
					<path fill="#304E6B" d="M818.9,915.5c0,0,0.1,0,0.1,0C818.8,915.4,818.8,915.5,818.9,915.5z"/>
					<path fill="#304E6B" d="M818.9,915.5c-0.4,0.1-0.7,0.2-1,0.3c0.4,0,0.9-0.1,1.2-0.1C819.1,915.6,819,915.6,818.9,915.5z"/>
					<path fill="#304E6B" d="M801.5,918.5c0.1-0.4,2.1-0.8,3.7-0.3c1.6-0.3,0.6-1.6-0.9-2.3c-0.1,0.2-0.1,0.3-1.7,0.6
						c0.6,0.2,3.8,0.5,2.3,0.9c-2.2,0.2-1.8-0.1-2.9-0.3c0.9,0.5-2.9,0.7-2.4,1.4l2-0.3C801.7,918.2,801,918.4,801.5,918.5z"/>
					<path fill="#304E6B" d="M807.6,915.9l0.7,0c-0.8-0.1-1.4-0.2-2.4-0.5c-1.2,0.2-1.4,0.3-1.5,0.5l3.4,0.1L807.6,915.9z"/>
					<path fill="#304E6B" d="M811.4,915.8c-0.5,0.4-2.2,0.6-1.2,1.1c2,0,1.4-0.4,2.7-0.5C809.6,916.5,813.8,916.1,811.4,915.8
						c0.7,0,1.3,0,1.8-0.1c-0.6-0.1-1.2-0.1-1.7-0.2c0,0,0.1,0,0.1,0l0,0c0,0,0,0,0,0c0.1,0.1,0.2,0.1,0,0.1c0,0-0.1,0-0.1,0
						C811.6,915.7,811.5,915.8,811.4,915.8c-1-0.1-0.2-0.1,0.1-0.2c0,0,0,0,0-0.1c0,0,0,0,0,0l-3.3,0.2
						C809,915.9,809.9,915.9,811.4,915.8z"/>
					<path fill="#304E6B" d="M828,918c-0.1,0-0.1-0.1-0.1-0.1C827.7,917.9,827.6,918,828,918z"/>
					<path fill="#304E6B" d="M826.7,917.7c0.2-0.1,0.4-0.2,1.2-0.2c0.7,0.1,0,0.2,0,0.3c0.5-0.1,1.6-0.3,0.2-0.5l-0.2,0.1
						c-1.3-0.1-3-0.7-2.8-0.7C825.4,917.1,825.8,917.3,826.7,917.7z"/>
					<path fill="#304E6B" d="M819,916.9l-2.8,0.2l1.4,0.4l-0.1-0.2C819.1,917.3,818.8,917,819,916.9z"/>
					<polygon fill="#304E6B" points="803.9,915.5 804.3,915.1 802.7,915.7 					"/>
					<polygon fill="#304E6B" points="800.3,915.6 800.5,915.2 799.5,915.4 					"/>
					<path fill="#304E6B" d="M598.5,920.5l-0.8,0.1C598,920.6,598.3,920.5,598.5,920.5z"/>
					<path fill="#304E6B" d="M604.3,920.5l0.1-0.2C604.2,920.4,604.1,920.5,604.3,920.5z"/>
					<path fill="#304E6B" d="M712.5,915.6c-1.2-0.4-2.5-0.9-2.4-0.5l0.4,0.4C711.3,915.5,712,915.5,712.5,915.6z"/>
					<path fill="#304E6B" d="M652.3,918.2c0.1,0,0.2,0.1,0.3,0.1c0.3-0.1,0.6-0.3,0.8-0.4C653.1,918,652.7,918.1,652.3,918.2z"/>
					<path fill="#304E6B" d="M651.5,920l-1.6-0.3C650.3,919.8,650.8,919.9,651.5,920z"/>
					<path fill="#304E6B" d="M566.5,921l-0.9,0.4C567,921.4,566.4,921.2,566.5,921z"/>
					<path fill="#304E6B" d="M763.7,915.7c-1-0.2-1.8-0.2-2.5-0.3C762.4,915.7,763.4,916.1,763.7,915.7z"/>
					<path fill="#304E6B" d="M600.8,915.9c-0.5,0.1-0.7,0.2-0.7,0.3C600.6,916.1,600.9,916,600.8,915.9z"/>
					<path fill="#304E6B" d="M758.2,915.5c0.2,0,0.4,0.1,0.5,0.1c0.7-0.1,1.5-0.1,2.4-0.1C760.3,915.3,759.2,915.2,758.2,915.5z"/>
					<path fill="#304E6B" d="M450.5,920.6c-0.1,0-0.2,0-0.3-0.1C450.2,920.6,450.3,920.6,450.5,920.6z"/>
					<path fill="#304E6B" d="M416.7,916.2c0.3,0,0.9,0,1.4,0C417.8,916.2,417.4,916.2,416.7,916.2z"/>
					<path fill="#304E6B" d="M786,915.4C786.7,915.4,786.1,915.3,786,915.4L786,915.4z"/>
					<path fill="#304E6B" d="M789.6,917.1c-0.2,0-0.3,0.1-0.3,0.2C789.4,917.2,789.5,917.1,789.6,917.1z"/>
					<path fill="#304E6B" d="M750.7,918.2C750.7,918.2,750.6,918.2,750.7,918.2C750.8,918.3,750.8,918.2,750.7,918.2z"/>
					<path fill="#304E6B" d="M787.1,915.6c-0.3-0.1-0.6-0.1-1-0.1C786.3,915.5,786.6,915.5,787.1,915.6z"/>
					<path fill="#304E6B" d="M786.9,915.4c0.3,0,0.5,0,0.7,0C787.7,915.4,787.6,915.3,786.9,915.4z"/>
					<path fill="#304E6B" d="M784.9,915.4c0.4,0,0.8,0,1.2,0c-0.1,0-0.2-0.1-0.2-0.1C785.7,915.4,785.4,915.4,784.9,915.4z"/>
					<path fill="#304E6B" d="M512.6,919.4c-0.1,0-0.1,0-0.2,0C511.7,919.6,512.1,919.5,512.6,919.4z"/>
					<path fill="#304E6B" d="M692.7,920.1C692.8,920.1,692.8,920.1,692.7,920.1C692.8,920.1,692.7,920.1,692.7,920.1L692.7,920.1z"
						/>
					<path fill="#304E6B" d="M690,920.5c1.2-0.5,1.8-0.5,2.7-0.4l-0.9-1.3L690,920.5z"/>
					<path fill="#304E6B" d="M584.5,920.6l1.9,0.4c-2.3,0.6-4,0.4-2.2,1c0.3-1.4,7.4-0.1,7.7-1.5l1.3,0.3c-0.4,0-0.4,0.1-0.8,0.1
						c2.5,0.7,1.8-1,5-0.8c1.1,0.1,1.9,0.3,1.1,0.5l2.5-0.3c0.7,0,0.5,0.3-0.2,0.2l3.7-0.1l0,0c0.5-0.2,1.7-0.5,2.3-0.7
						c1,0.2-0.5,0.1-0.2,0.3l2.1-0.3c0.8,0.4-0.9,0.7-2.3,0.6c1.9,1.4,1.7-0.3,5.9,0.5l-2,0.2c1.3,0.8,2.8,0.5,5,1
						c-0.5-0.3-4.4-1.2-2.2-1.5c0.6,0.1,1.5,0.2,2.7-0.1c0,0.5,1.2,0.4,2.7,0.3l-0.1,0.6c1.6-0.2,1.5-0.5,2.4-0.8
						c1.8,0.1,2.2,0.6,2.6,1c2.9,0.1-2-0.8,1.4-0.9c2.4,0.2,4.1,0,6.9-0.4c1.7,0.2-0.3,0.4,0.3,0.6l1.5-0.5c0.4,0,0.2,0.2,0.2,0.2
						c1.2-0.2,0.1-0.6,2.1-0.8c0.5-0.7,4,1,6.4,0.2c0.6,0.2-0.3,0.4-0.1,0.6c3.3-0.5,2.8-0.4,5.6-1.1l2.3,0.4
						c-1.7-0.5,0.5-1,2.4-1.5c-0.6-0.2-1.1-0.4-1.5-0.5l3-0.3c0.4,0.1,0.1,0.3-0.4,0.6c0.2-0.1,0.4-0.1,0.6-0.2
						c1.1,0.2,0.5,0.6-0.3,1c-0.4-0.1-0.7-0.3-1.1-0.4c-0.8,0.4-1.5,0.8-1.3,1.2c0.2-0.1,0.6-0.1,1-0.2c-0.2,0.1-0.3,0.2-0.2,0.3
						c0.1,0.1,0.4-0.1,0.9-0.2l0.7,0.7l0.2-0.3l4,0.4c2.9-0.7,5.3-1.8,9.9-2.1c-1.1,0.5-0.2,0.9-0.3,1.5c-1.2-0.7-3.5,0.3-5.9,0.1
						c1.2,0.1,1,0.4,0.6,0.5l4.2-0.6c-0.1,0.5,0.9,0.4,2,0.6c-0.8-1,3.1-0.7,4.8-1c0.1,0.3-0.3,0.7-2.4,0.6c2.3,0.8,3-1.2,5.2-0.5
						c-0.5,0-0.8,0-1,0.1c1.2-0.3,4.1-0.1,3.4,0.2l-0.5,0c3.4,0.1,10.3,0,10.8-0.8c0,0.1-0.4,1-0.6,1.2l6-2.9
						c-0.5,0.7,1.5,2.5-1.3,2.9c0.8,0.1,1.8,0.2,3.5,0c-0.5-0.1-1.4-1.1-0.6-1.1c2.1,0.8,1.4,0.4,4,1.1c-0.8-0.2,0.1-1.3,1.4-1.3
						c-0.2,0.2,0.1,1.1-0.4,1.3l3.2-1.1c-0.8,0.2-0.1,1,0.6,1.3c-0.3-0.2,2.8,0,3.6-0.1l-1.4-0.3c3.6,0.2,3.6-1.6,7.2-1.5
						c-0.4,0.2-1.1,1.4,0.8,1.6c0.8-0.6,3.7-2.8,6.9-3.2l0.6,0.3l2.5-0.4c-1.5,0.9-5.8,2.7-8.2,3.4c1.4,0.3,0.4,0.4,2.4,0.4
						c0.7,0.3-1.1,0.5-1.7,0.5l4.8,0.2c-0.2-0.7,3.6-0.7,3.5-1.2l-5.2,0.7c-0.2-0.7,3-1.9,6.4-1.8c0.9,0.3-0.6,1.2-0.6,1.4
						c0.4-0.2,3.2-0.4,3.5-0.3l-1.4,0.4c1.9,0.3,3.1-0.9,5.3-0.2c0.8,0,2.3,0.9,2.5,0.5c-1.3-0.8-1.5-3.1-0.7-3.7
						c0.3,0.1,4.1,0.7,5,1.1c1.3,0.6-1.9,1.4-0.8,2c0-0.2,0.8-0.4,1-0.5c0.8,0.2-0.3,0.6,1.4,0.5c0.3-0.7,3.6,0.1,0.8-0.6
						c1.7-0.2,1.8,0.1,3.9,0.1c-0.6-0.4,1.8-1.5,3.6-1.7c-0.1,0.2,0.3,0.4,0.5,0.5c3.6,0.1,5.5,0.4,8.8,0.4c0.3,0.2,1.9,0.4,1.2,0.7
						c0.5-0.1,0.9-0.4,1.9-0.4c2,0.6-2.3,0.1-0.8,0.8c0.1-0.4,2.6-0.5,4.1-0.8c-0.4-0.6-3.4-0.1-4.8,0.1c0-0.8,2.5-1.7,6-2.1
						c2.8-0.2,1.2,0.5,1.7,0.4c5.2,0.1,4.4-1.5,8.7-0.9c1.7,0.5,0.1,1.1,0.5,1.5c-2.2,0.2-3.4-0.3-5-0.3l1.9,0.3
						c-0.7,0.2-2.2,0.3-3,0.2c1.4,0.5,8.7,0.1,12.7,0.5c0.7-0.2,1.9-0.4,1.4-0.6l-1.3,0.1c-1.2-0.4,2.4-0.6,0.8-0.8
						c1.7-0.3,3.6-0.8,6-0.5l0.4,0.6c-0.1-0.2-1.6-0.4-2.2-0.2c1-0.3,3.7,0.8,4.7,0l-1.7-0.4c1.7-0.3,3.8-1,5.9-0.8
						c-1-0.6-0.5,0.1-2-0.6c1.3,0.9-5.4,0-3.3,0.9c-1.5-0.8-2.7-0.3-4.7-1c0.1,0.2,0.7,0.4-1.1,0.3c-0.1,0.1-0.3,0.1-0.4,0.2
						c-0.1,0-0.1,0-0.1,0c0,0,0.1,0,0.1,0c-0.1,0-0.1,0,0,0c0.4,0.1,0.8,0.2,0.9,0.3c-0.9,0.5-3.7,0.4-4.7,0.7
						c-1.1-0.1,0.4-0.2-0.1-0.4l-1.4,0.4c-0.1-0.4-2.8-0.7-0.3-1l-2.2,0c-1.3-0.3-3.1-0.4-4.2-0.2c-1.1-0.1-2.7,0.5-1.7,0.1
						l-3.5,0.3l0-0.1c-3.5-0.1-7.1,0.7-11.1-0.1c-1.2,0.1-2.4,0.3-4.3,0.1l-0.4-0.4c-1.5,0.1-4.5-0.4-5.1,0c-1.6-1-7.3-0.2-9.9-0.4
						l-0.1,0.5c-1.8,0-3.5,0.1-5.8,0.3l0.1,0.4c-1.9,0.4-5-0.3-8-0.3c0.2-0.2,1-0.1,1.5,0c-3.7-1-7.7,0.7-11,0c-0.8,0.2-1.4,0.1-2,0
						c0.1,0,0.1,0,0.2,0c-0.1,0-0.2,0-0.3,0c-0.4-0.1-0.7-0.2-1.1-0.2c0.3,0.1,0.7,0.2,1,0.2c-0.6,0-1.6,0.1-2.6,0.2l-0.4-0.5
						c-0.1,0-0.1,0-0.2,0c-0.9-0.2-0.7,0.2-0.3,0.6c-0.5,0.1-0.9,0.2-1.3,0.3c-0.8-0.8-2.5,0.3-3.5-0.6c-0.6,0.4-4.8,0.3-5.3,1.2
						c0-0.1-0.3-0.2,0.2-0.2c-1.1-0.1-2.1-0.2-3.1,0l-0.4-0.6l-2.3,0.8c-1.4-0.4-2-0.6-0.6-1.1c-3.4,0.7-2.7,0.3-5.6,1l0.1-0.4
						c-1,0-2.7,0.5-3.3,0.2c-2.3-0.8-11.3-0.1-17.2-0.8c1.1,1.2-2.7-0.5-3,0.4c-0.3-0.3-1.2-0.4-0.2-0.7c-3,0.3-4.5-0.4-6.6,0.3
						c-0.3-0.3,0.6-0.4,0.3-0.6c-0.2,0.1-1,0.2-1.3,0.1c-0.3-0.2,0.4-0.2,0.9-0.4c-3.1,0-3.4,0.9-3.6,1.7c-1.6-0.4-2.3-0.3-3.4,0.2
						c-0.5-0.3-1.4-0.5,0.5-0.6c-1.1,0-6.5-0.4-6.6,0.3c-0.3-0.2-1.5,0-1.8,0c-2.4,0-2.6-0.1-5,0l0.7,0.1c-0.9,0.8-2,0.2-3.9,0.3
						l0.1-0.1c-4.4-0.6-1.9,0.3-6.2-0.4l0.2,0.5c-0.4,1-3.8-0.6-6.3-0.2l0.9,0.3c-1.4,0.4-3.8-1.4-5.2-1.5c-0.3-0.1,0.5-0.1,0.9-0.2
						c-3.6-0.6-0.5,0.6-3.1,0.8c-0.5-0.3,0.6-0.9-1.2-0.9c-0.9-0.3-5.2,1.1-7.7,0.5c0.5,0.3,1.1,0.5-0.2,0.7c-1.9,0.1-5.1-1-6.9-0.2
						c-0.2-0.1-0.3-0.1-0.3-0.2c-1.5,0.2-4.7,0.4-5.6,0.8c-1.3-1.7-9,0.8-9-0.7l-4.5,0.1l0.1-0.2c-2.9-0.1-3.9,0.3-4.9,0.6
						c-0.7-0.1-0.2-0.2-0.1-0.3c-4.2-0.3-4.6-0.2-8.1,0.5l-0.4-0.5c-0.9,0.3-6-0.8-10.1-0.2c0-0.1,0.1-0.2,0.4-0.2
						c-4.6,0.6-11-1.4-12.7,0.4l-3,0.4c3.9,0.1-0.6,0.8,1,1.1c-1.5,0.1-4-0.5-2.1-0.6l0.3,0.1c0.7-0.9-4.9-0.3-4.8-1
						c-7.7,0-15.3-0.5-22.5-0.5l0.8,0.7l-2.5,0c-0.7-0.2-0.9-0.6,0.9-0.5c-0.9-0.4-3,0.3-3.1,0.5c-3.5-0.3,1.4-0.9,0.3-0.9l-1.5,0.1
						l0.3,0.1c-1.2,0.3-1.3,0.6-3.5,0.6c-1.4-0.1-0.7-0.5-1.2-0.5c0-0.1-0.2-0.1-0.8,0l-3.2-0.1l1.3,0.6c-1.4,0.3-3,0-1.5,0.6
						c-2.2-1-11.9-0.4-13.2-0.7c-2,0.4-3.9,0.4-6.3,0.4c0.6,0.1,1,0.8-1.1,0.7c0.8-1.3-3.8-0.6-5.5-1.5c1.5,0.6-5.9,0.2-3.6,1.1
						c-1.7-0.1-0.1-0.5-1.4-0.8c-4.1,0.5-9.1-0.3-14.2-0.2c-0.1,0.2,0.8,0.4-0.3,0.7l-2.7-0.9c-1,0.1-0.9,1-2.8,0.4
						c0.3,0.1,0.6,0.4,0,0.4c-10-0.9-20.5,0.7-30.7-0.9c1.4,0.3,0.5,0.4-0.6,0.4c0.7,0.1,0,0.4,0.1,0.7l-4.3-0.7
						c-0.8,0.7-4.6,0-5,0.7l1.3-0.1c-1.8,0.7,2.5,1.7,2.2,2.6c2-0.8,5.3,1.3,8.6,0c0.7,0.2-0.6,0.3-0.2,0.5c0.8-0.4,1.8-0.5,3.7-0.3
						l-0.2,0.1c5.3-0.1,7.5,0.3,13.4,0.6l-0.4-0.5c1.3,0.1,1.5,0.2,2.1,0.3c1.5-0.7-3.6,0-2.2-0.8c1.7,1,8.9,0,10.1,1.1
						c2,0-0.6-0.5,1.4-0.5l0.5,0.3l0.5-0.4c1.3,0.1,1.9,0.4,2,0.7c-0.3,0-0.9,0.1-1.2,0.1c1.7,0.3,4.7-0.1,5.2,0l-1.9-0.2
						c5.3-0.3,11.8,0.1,17-0.5l-0.4-0.2c3.9-0.4,3.1,0.2,7.5,0.1l-0.2,0.1c0.9-0.2,2-0.3,3.2-0.3c-1.1,0.3,2,0.5,0.6,0.8
						c4.3-0.4,2.1-0.3,4.9-1.2l0.6,0.4c1-0.3,1-0.5,3.2-0.6c-1.8,0.3,1.4,0.6-0.6,1c4.5,0.8,6.7-0.8,8.8,0.4c2.1-1-3.9-0.6-2.7-0.8
						c-1-0.3,1.7-0.8,3.1-0.7c1.4,0,2.5,1.3,6.1,1.3c-0.4,0-0.4,0.1-0.7,0.1c1.4,0.3,2.7-0.4,4.3,0.1c0.9-0.6,2.2,0,2.4-0.8
						l-3.3,0.2c1.9-0.2,3.7-1.1,6.8-0.7c-0.2,0.2-1.2,0.4-1.8,0.5c0.9,0.2,1.8-0.2,2.7,0.1c-0.3,0.8-4,0.2-6.1,0.8
						c1,0.3,3.8-0.6,2.8,0.3c1.5-1.1,3.6,0.1,6-0.7l-0.2,0.5c0.4-0.1,1.2-0.3,1.9-0.3l-1.3,0.6c2-0.5,3.8,0.5,5.8,0.2
						c-4,0-0.9-0.6-2.6-0.9c4.9-0.6,2.8,1.2,8.4,1c-0.7,0.1-2.8-0.3-1.6-0.5c1.1,0.1,2.4,0.3,3.1,0.5c3.7-0.1-0.6-0.5,1-0.8
						c1.2,0.6,1.8-0.2,3.4-0.4l0,0.5c4.2,0.3,1.1-1,4.9-0.6l-1.6,0.7l2-0.2l-0.4,0.5c2.1-0.4,2.8-0.3,4.9-0.1
						c-0.5-0.3,0.3-0.9,2.1-0.9c1.3,0.3-0.7,0.5,1.9,0.4c-0.6,0.3-1.2,0.7-2.4,0.2c-0.1,0.2-0.6,0.3-0.7,0.5
						c1.4,0.3,3.4,0.1,4.4,0.1c-0.4,0-0.8,0-1-0.1l3.8-0.7c0.6,0.2,0.1,0.3-0.3,0.5c0.8-0.1,1.3-0.3,2.4-0.3c-0.3,0.4-0.2,0.8-1.8,1
						l3.6-0.4c0.2,0.2,1.9,0.5,1.4,0.6c2,0.2,4.9-0.8,7.6-0.5c0.1-0.1,0.4-0.1,1-0.2c2.5,0.1,4.7,0.6,7.7,0l1.7,0.7
						c2.3-0.2-2.3-0.9,1.6-1.2c2.7-0.2,1,0.6,2,0.8c1.4-0.4,3.7-1.1,6.2-0.5C585.9,920.7,585.2,920.6,584.5,920.6z M613.1,920.3
						c-0.6,0.1-1.7,0.4-2.1,0.1C611.6,919.9,612.1,920.1,613.1,920.3z M656.5,919.1c-0.4,0.2-1,0.1-1.8-0.1
						C655.3,919,655.9,919,656.5,919.1z M777.6,915.8C777.6,915.8,777.6,915.8,777.6,915.8C776.3,915.6,776.8,915.7,777.6,915.8z
						 M780.2,916c0.3-0.1,0.2-0.1,0.1-0.2c-0.2,0.1-0.8,0.1-1.4,0.1C779.1,916,779.4,916.1,780.2,916z M504.5,916.2l0.5,0.1
						C503.9,916.5,504.2,916.3,504.5,916.2z"/>
					<path fill="#304E6B" d="M651.6,919.8c-0.2-0.1-0.2-0.2-0.2-0.3C651.1,919.6,651.1,919.7,651.6,919.8z"/>
					<path fill="#304E6B" d="M566.7,920.9C566.6,920.9,566.6,920.9,566.7,920.9c-0.1,0-0.2,0.1-0.2,0.1L566.7,920.9z"/>
					<path fill="#304E6B" d="M740.4,920.1c-0.5-0.1-0.8-0.2-1-0.2C739.4,920,739.6,920.1,740.4,920.1z"/>
					<path fill="#304E6B" d="M793.8,915.2l-1.6,0.1c0.8,0,1.1,0.1,1.5,0.2C793.6,915.3,793.3,915.2,793.8,915.2z"/>
					<path fill="#304E6B" d="M808.1,918.2c0.2-0.1,0.5,0,0.7-0.1l-0.1-0.2C807.7,917.9,807,918.1,808.1,918.2z"/>
					<path fill="#304E6B" d="M795.3,916.8c0.1,0.4,1.2,0.3,2.3,0.2c-0.1,0-0.1,0-0.2,0C797.8,916.4,796.5,916.6,795.3,916.8z"/>
					<path fill="#304E6B" d="M797.9,917c0.4,0,0.7,0,1.1,0C799.1,916.7,798.5,916.9,797.9,917z"/>
					<path fill="#304E6B" d="M783.5,915.7c0.5,0.1,0.3-0.5,0.7-0.4C784.7,914.9,780.5,916,783.5,915.7z"/>
					<polygon fill="#304E6B" points="796.3,918.1 795.8,917.6 795.2,918 					"/>
					<path fill="#304E6B" d="M787.2,917.7l1.8,0.1c0-0.1,0.2-0.1,0.5-0.2C788.4,917.7,787.1,917.6,787.2,917.7z"/>
					<path fill="#304E6B" d="M789.5,917.7c0.6,0,1.2,0,1.5-0.1C790.7,917.6,790,917.7,789.5,917.7z"/>
					<polygon fill="#304E6B" points="793.7,918.3 793.2,918.2 791.9,918.1 					"/>
					<path fill="#304E6B" d="M767.4,917.7l-2,0.1c-0.2,0.2,0.3,0.3,1.1,0.2C766.9,917.9,767.7,917.8,767.4,917.7z"/>
					<path fill="#304E6B" d="M773.5,919c-0.5-0.1-0.6-0.2-0.9-0.4l-0.1,0.6L773.5,919z"/>
					<path fill="#304E6B" d="M767.6,919.2c-0.2,0.2-2.9,0.5-0.4,0.5C767.4,919.5,769.4,919.3,767.6,919.2z"/>
					<polygon fill="#304E6B" points="737.3,918.4 737.8,918.4 737.8,917.4 					"/>
					<path fill="#304E6B" d="M710.7,920.8c2.4,0.2,0.6-0.6,2.7-0.3c0.6-0.2-1.8-0.2-1.2-0.5C710.8,920.3,710,920.1,710.7,920.8z"/>
					<path fill="#304E6B" d="M712.2,920c0.2,0,0.5-0.1,0.7-0.2C712.5,919.9,712.3,920,712.2,920z"/>
					<polygon fill="#304E6B" points="411.1,915.7 409.6,915.5 410.6,915.8 					"/>
					<path fill="#304E6B" d="M408.2,916.4l-0.4-0.6l-0.9,0.6C407.2,916.3,407.9,916.3,408.2,916.4z"/>
					<path fill="#304E6B" d="M617.3,921.6l0.1-0.2c-0.2-0.2-0.6-0.2-1.3-0.2L617.3,921.6z"/>
					<polygon fill="#304E6B" points="596.5,921.1 596.9,921.1 596.2,920.6 					"/>
					<path fill="#304E6B" d="M579.1,921.9c0.7,0,1.5-0.1,2.3-0.1C579.8,921.9,578.9,921.1,579.1,921.9z"/>
				</g>
			</g>
		</g>
	</g>
</g>
</svg>
